<?xml version="1.0" encoding="UTF-8" standalone="no"?>
<!-- Created with Inkscape (http://www.inkscape.org/) -->

<svg
   width="109.8526mm"
   height="37.014603mm"
   viewBox="0 0 109.8526 37.014603"
   version="1.1"
   id="svg1"
   xml:space="preserve"
   inkscape:version="1.3 (0e150ed6c4, 2023-07-21)"
   sodipodi:docname="OSE.svg"
   xmlns:inkscape="http://www.inkscape.org/namespaces/inkscape"
   xmlns:sodipodi="http://sodipodi.sourceforge.net/DTD/sodipodi-0.dtd"
   xmlns="http://www.w3.org/2000/svg"
   xmlns:svg="http://www.w3.org/2000/svg"><sodipodi:namedview
     id="namedview1"
     pagecolor="#ffffff"
     bordercolor="#000000"
     borderopacity="0.25"
     inkscape:showpageshadow="2"
     inkscape:pageopacity="0.0"
     inkscape:pagecheckerboard="0"
     inkscape:deskcolor="#d1d1d1"
     inkscape:document-units="mm"
     inkscape:zoom="0.32204335"
     inkscape:cx="131.96981"
     inkscape:cy="268.59738"
     inkscape:window-width="1280"
     inkscape:window-height="961"
     inkscape:window-x="-8"
     inkscape:window-y="-8"
     inkscape:window-maximized="1"
     inkscape:current-layer="layer1" /><defs
     id="defs1" /><g
     inkscape:label="Capa 1"
     inkscape:groupmode="layer"
     id="layer1"
     transform="translate(-4.914693,-4.3490992)"><g
       id="g1"
       transform="translate(-26.458344,-37.041684)"><path
         style="fill:#30b2e0"
         d="m 31.375728,59.884551 0.0027,-18.388541 26.987502,-0.0019 26.987501,-0.0019 -26.919557,0.0693 -26.919557,0.0693 -0.07064,18.321143 -0.07064,18.321142 z m 59.40166,18.03767 c 0,-0.154148 3.174808,-5.912794 7.05513,-12.79699 3.880322,-6.884197 7.185892,-12.754846 7.345722,-13.045888 2.22578,-4.053165 4.14035,-7.249115 4.81449,-8.036693 1.93271,-2.25794 5.5147,-3.218909 8.62646,-2.314295 1.84908,0.537542 3.97803,2.40046 5.06531,4.432355 1.03976,1.943079 1.79333,3.284349 2.77442,4.938089 0.45703,0.770388 0.83097,1.448619 0.83097,1.507179 0,0.05856 0.40057,0.797461 0.89016,1.642002 0.48959,0.844541 1.20397,2.101077 1.5875,2.792301 0.38354,0.691224 0.97838,1.762786 1.32187,2.38125 0.34349,0.618463 0.92197,1.66026 1.28551,2.315104 0.36354,0.654843 0.93207,1.666875 1.2634,2.248958 0.33134,0.582083 0.92756,1.653646 1.32495,2.38125 1.37782,2.522735 2.20337,3.973661 2.8197,4.95568 0.34067,0.542811 0.61941,1.039436 0.61941,1.103612 0,0.06417 0.58412,1.128107 1.29804,2.364293 1.51565,2.62443 1.79804,3.351788 1.29948,3.347086 -0.19171,-0.0018 -1.42012,-0.302461 -2.72981,-0.668118 -9.73578,-2.718173 -18.87866,-3.852625 -26.58733,-3.298966 -5.56064,0.399382 -8.74835,0.931206 -14.555382,2.428356 -6.625333,1.708124 -6.35,1.650741 -6.35,1.323435 z m 7.011458,-2.287989 c 7.329914,-1.768159 13.205224,-2.399361 20.219374,-2.172226 6.22981,0.201736 12.19839,1.130185 18.98625,2.953427 1.41583,0.380297 2.43178,0.531778 2.58263,0.385076 0.24024,-0.233642 0.12969,-0.483652 -1.45481,-3.289916 -0.32866,-0.582084 -1.86672,-3.320521 -3.4179,-6.085417 -1.55119,-2.764896 -3.15437,-5.622395 -3.56263,-6.35 -0.40825,-0.727604 -0.95097,-1.680104 -1.20604,-2.116666 -0.25506,-0.436563 -0.77612,-1.359297 -1.15791,-2.050521 -0.3818,-0.691224 -0.99183,-1.792552 -1.35563,-2.447396 -0.3638,-0.654844 -0.95911,-1.726406 -1.32292,-2.38125 -0.3638,-0.654844 -0.97544,-1.756172 -1.35921,-2.447396 -3.49844,-6.301255 -4.88716,-7.516936 -8.61425,-7.540905 -1.42955,-0.0092 -2.05389,0.131542 -3.23532,0.729293 -0.80517,0.407377 -1.80706,1.117743 -2.22642,1.578591 -0.41936,0.460849 -1.98728,3.032315 -3.48426,5.71437 -1.49697,2.682055 -2.91694,5.17412 -3.15548,5.537922 -0.23854,0.363802 -0.6063,1.018646 -0.81724,1.455208 -0.21094,0.436563 -0.83172,1.539988 -1.37952,2.452056 -0.5478,0.912069 -0.99601,1.710501 -0.99601,1.774295 0,0.06379 -0.37393,0.746305 -0.83097,1.516694 -0.45703,0.770388 -1.131735,1.936487 -1.49934,2.59133 -0.367605,0.654844 -1.438381,2.559844 -2.379501,4.233334 -0.94112,1.673489 -2.069499,3.697552 -2.507508,4.497916 -0.438009,0.800365 -0.911617,1.60252 -1.052462,1.782568 -0.140845,0.180048 -0.190589,0.498032 -0.110542,0.706631 0.126227,0.328943 0.314482,0.328312 1.418663,-0.0048 0.700218,-0.211213 2.463748,-0.671233 3.918956,-1.022266 z m 16.977434,-4.284403 c -0.097,-0.09701 -0.17639,-3.613826 -0.17639,-7.815137 v -7.638748 l -2.4474,0.07608 -2.44739,0.07607 -0.074,3.693389 c -0.051,2.54785 -0.17412,3.757022 -0.39687,3.898553 -0.52328,0.332476 -4.01765,0.249148 -4.37103,-0.104234 -0.17462,-0.174625 -0.3175,-0.746125 -0.3175,-1.27 0,-1.144807 0.38367,-1.5875 1.37584,-1.5875 h 0.74083 l 0.004,-3.505729 c 0.002,-1.928151 0.10019,-3.657202 0.21768,-3.842335 0.16356,-0.257709 1.41844,-0.319725 5.35377,-0.264584 l 5.14012,0.07202 0.1323,7.672916 0.13229,7.672917 h 2.24896 2.24895 l 0.0734,-3.76709 c 0.085,-4.361375 -0.10031,-4.123736 3.10714,-3.985443 l 1.84655,0.07962 0.0792,1.367086 c 0.0694,1.197813 0.01,1.389179 -0.48296,1.545512 -0.3092,0.09813 -0.63154,0.109057 -0.71633,0.02427 -0.0848,-0.08479 -0.31393,-0.02155 -0.50922,0.140531 -0.26583,0.220618 -0.35508,1.217556 -0.35508,3.966454 v 3.67177 h -5.11528 c -2.8134,0 -5.19465,-0.07937 -5.29166,-0.176389 z m 0.61736,-0.352778 c 0,-0.145521 -0.11906,-0.264583 -0.26458,-0.264583 -0.14553,0 -0.26459,0.119062 -0.26459,0.264583 0,0.145521 0.11906,0.264584 0.26459,0.264584 0.14552,0 0.26458,-0.119063 0.26458,-0.264584 z m -10.05417,-7.789593 c 0,-0.06417 -0.11906,-0.190262 -0.26458,-0.280198 -0.14552,-0.08994 -0.26458,-0.03743 -0.26458,0.116676 0,0.154109 0.11906,0.280199 0.26458,0.280199 0.14552,0 0.26458,-0.0525 0.26458,-0.116677 z m 0,-1.735407 c 0,-0.14552 -0.11906,-0.264583 -0.26458,-0.264583 -0.14552,0 -0.26458,0.119063 -0.26458,0.264583 0,0.145521 0.11906,0.264584 0.26458,0.264584 0.14552,0 0.26458,-0.119063 0.26458,-0.264584 z m 1.75306,-0.388146 c 0.26929,-0.701777 -0.0263,-0.932446 -0.3391,-0.264663 -0.17098,0.364953 -0.19648,0.652809 -0.0578,0.652809 0.13639,0 0.31502,-0.174666 0.39694,-0.388146 z m 8.30111,-7.632832 c 0.94588,-0.0426 -0.51263,-0.100782 -3.24115,-0.129283 -2.72851,-0.0285 -4.96116,0.03748 -4.96144,0.146616 -4.5e-4,0.181733 3.96922,0.173345 8.20259,-0.01733 z M 33.484335,76.487155 c -0.06954,-0.181901 -0.09465,-7.712604 -0.05579,-16.734895 l 0.07066,-16.404167 0.06409,16.601241 0.06409,16.60124 24.672398,0.06889 24.672397,0.06889 -24.680701,0.06477 c -19.548681,0.0513 -24.706993,-0.004 -24.807143,-0.265964 z M 83.229002,60.016843 c 3.2e-5,-9.167812 0.03324,-12.87991 0.0738,-8.249107 0.04056,4.630804 0.04053,12.131741 -5.7e-5,16.66875 -0.04059,4.537009 -0.07377,0.748169 -0.07374,-8.419643 z m -47.632751,7.14375 c 1.26e-4,-4.220104 0.03666,-5.909461 0.08118,-3.754127 0.04452,2.155335 0.04442,5.608147 -2.28e-4,7.672917 -0.04465,2.064769 -0.08108,0.301314 -0.08095,-3.91879 z m 43.840084,5.232412 -0.03603,-0.853004 -4.034896,-0.08046 -4.034896,-0.08046 4.0432,-0.05872 c 4.34376,-0.06309 4.470362,-0.02371 4.215838,1.311099 -0.08994,0.471689 -0.125559,0.416257 -0.153215,-0.23845 z M 66.283129,67.160593 c 2.16e-4,-3.055938 0.03873,-4.269857 0.08559,-2.697599 0.04686,1.572258 0.04668,4.072571 -3.93e-4,5.55625 -0.04707,1.483679 -0.08541,0.197286 -0.0852,-2.858651 z m -15.876707,0 c 2.55e-4,-2.764896 0.03946,-3.86004 0.08713,-2.433653 0.04767,1.426387 0.04746,3.688574 -4.62e-4,5.027083 -0.04792,1.338509 -0.08692,0.171466 -0.08666,-2.59343 z m 6.412886,4.431771 c -0.06745,-0.109141 0.568995,-0.198438 1.414328,-0.198438 0.845333,0 1.481781,0.0893 1.414328,0.198438 -0.06745,0.10914 -0.7039,0.198437 -1.414328,0.198437 -0.710428,0 -1.346876,-0.0893 -1.414328,-0.198437 z m -14.867961,-4.497634 0.01041,-4.16747 1.5875,-0.01889 1.5875,-0.01889 -1.514699,0.09748 -1.514699,0.09748 -0.08321,4.088872 -0.08321,4.088873 z m 11.056768,3.178675 c 0.691224,-0.0545 1.822318,-0.0545 2.513542,0 0.691224,0.0545 0.125677,0.0991 -1.256771,0.0991 -1.382448,0 -1.947995,-0.04459 -1.256771,-0.0991 z m 1.5875,-2.118389 c 0.982265,-0.05091 2.589609,-0.05091 3.571875,0 0.982266,0.05091 0.178594,0.09256 -1.785938,0.09256 -1.964531,0 -2.768203,-0.04165 -1.785937,-0.09256 z m -2.452703,-0.47165 c -0.184076,-0.221798 -0.283444,-0.454508 -0.220818,-0.517134 0.06263,-0.06263 0.259195,0.118845 0.43682,0.403269 0.384126,0.615083 0.256018,0.682614 -0.216002,0.113865 z m 25.955363,-0.544822 c 0.0127,-0.308224 0.07539,-0.370919 0.159853,-0.159852 0.07643,0.190996 0.06703,0.419199 -0.02089,0.507118 -0.08792,0.08792 -0.150452,-0.06835 -0.138963,-0.347266 z M 58.288206,66.038613 c 0.975899,-0.05076 2.642774,-0.0511 3.704167,-7.5e-4 1.061393,0.05035 0.26293,0.09188 -1.774362,0.09229 -2.037292,4.13e-4 -2.905704,-0.04078 -1.929805,-0.09154 z m 2.657409,-2.115208 c 0.691224,-0.0545 1.822318,-0.0545 2.513542,0 0.691224,0.0545 0.125677,0.0991 -1.256771,0.0991 -1.382448,0 -1.947995,-0.04459 -1.256771,-0.0991 z m 14.470074,-1.058406 3.953483,-0.08365 0.109452,-0.921524 0.109452,-0.921524 -0.02774,0.994478 -0.02774,0.994477 -4.035194,0.01069 -4.035195,0.01069 z M 42.897111,56.726946 c -0.154997,-0.289614 -0.273893,-2.29137 -0.273893,-4.61131 0,-3.374074 0.07358,-4.173113 0.415774,-4.515311 0.368142,-0.368142 2.124466,-0.415773 15.330831,-0.415773 h 14.915058 l 0.411878,0.588038 c 0.328701,0.469286 0.411878,1.396055 0.411878,4.589201 0,3.540243 -0.05574,4.051605 -0.483855,4.439045 -0.438242,0.396604 -1.896447,0.437882 -15.468816,0.437882 -14.544404,0 -14.993015,-0.01505 -15.258855,-0.511772 z M 64.84822,52.211635 v -3.439583 h -6.482292 -6.482293 v 3.439583 3.439583 h 6.482293 6.482292 z"
         id="path2" /><path
         style="fill:#0270a4"
         d="M 31.510718,60.016843 V 41.628302 h 26.85521 26.855209 V 60.016843 78.405384 H 58.365928 31.510718 Z m 51.439821,16.640442 c 0.375443,-0.144071 0.418515,-1.859551 0.418515,-16.668749 V 43.480385 H 58.365928 33.362801 v 16.492361 c 0,9.070798 0.07938,16.571736 0.176389,16.66875 0.220366,0.220366 48.837745,0.235902 49.411349,0.01579 z M 35.744051,67.160593 v -7.540625 h 22.621877 22.621876 v 7.540625 7.540625 H 58.365928 35.744051 Z m 14.268298,5.520568 c 0.509224,-0.647373 0.54837,-1.041466 0.54837,-5.520568 0,-4.479102 -0.03915,-4.873195 -0.54837,-5.520569 L 49.463978,60.942885 H 43.79464 c -5.316561,0 -5.702266,0.03293 -6.198505,0.529166 -0.492985,0.492985 -0.529167,0.881945 -0.529167,5.688542 0,4.806597 0.03618,5.195557 0.529167,5.688541 0.496239,0.496239 0.881944,0.529167 6.198505,0.529167 h 5.669338 z m -7.918297,-5.520568 v -4.101042 h 1.719791 1.719792 v 4.101042 4.101042 h -1.719792 -1.719791 z m 22.00573,5.779826 c 0.410318,-0.371332 0.483854,-0.860758 0.483854,-3.220312 0,-3.830906 0.09491,-3.750139 -4.406632,-3.750139 h -3.530868 v -1.402292 c 0,-1.651858 0.300338,-2.037291 1.5875,-2.037291 1.046456,0 1.5875,0.378731 1.5875,1.11125 0,0.423333 0.264583,0.47625 2.38125,0.47625 h 2.38125 v -1.171727 c 0,-1.986481 -0.05323,-2.003273 -6.35,-2.003273 -4.663998,0 -5.58283,0.06438 -5.934227,0.415774 -0.326985,0.326985 -0.415774,1.030052 -0.415774,3.292288 0,3.749038 -0.06023,3.700271 4.569993,3.700271 h 3.393915 l -0.07935,1.521354 -0.07935,1.521354 h -1.455208 c -1.307665,0 -1.463781,-0.06036 -1.539756,-0.595312 -0.08047,-0.566609 -0.198476,-0.595313 -2.447396,-0.595313 h -2.362849 v 1.171726 c 0,1.983874 0.06084,2.003274 6.28192,2.003274 4.700333,0 5.516957,-0.06026 5.934228,-0.437882 z m 15.432813,-0.620451 v -0.926042 l -4.034896,-0.07304 -4.034896,-0.07304 v -1.580609 -1.580608 h 3.439584 3.439583 v -0.918137 -0.918137 l -3.373437,-0.07405 -3.373438,-0.07405 -0.07914,-1.514393 -0.07914,-1.514393 4.047892,-0.07311 4.047892,-0.07311 0.08212,-0.992188 0.08212,-0.992187 h -6.278992 c -5.471373,0 -6.341228,0.05632 -6.762847,0.437882 -0.438051,0.39643 -0.483855,0.939221 -0.483855,5.733854 0,4.577106 0.06001,5.362285 0.442119,5.784508 0.409709,0.452723 0.899451,0.483344 6.68073,0.417708 l 6.23861,-0.07083 z m 35.321875,-1.322917 c 0,-0.145521 0.11906,-0.264583 0.26459,-0.264583 0.14552,0 0.26458,0.119062 0.26458,0.264583 0,0.145521 -0.11906,0.264584 -0.26458,0.264584 -0.14553,0 -0.26459,-0.119063 -0.26459,-0.264584 z m -10.05416,-7.953115 c 0,-0.154109 0.11906,-0.206613 0.26458,-0.116676 0.14552,0.08994 0.26458,0.216026 0.26458,0.280198 0,0.06417 -0.11906,0.116677 -0.26458,0.116677 -0.14552,0 -0.26458,-0.12609 -0.26458,-0.280199 z m 0,-1.571885 c 0,-0.14552 0.11906,-0.264583 0.26458,-0.264583 0.14552,0 0.26458,0.119063 0.26458,0.264583 0,0.145521 -0.11906,0.264584 -0.26458,0.264584 -0.14552,0 -0.26458,-0.119063 -0.26458,-0.264584 z m 1.94312,-0.652809 c 0.16821,-0.359045 0.34683,-0.533711 0.39694,-0.388147 0.12955,0.37637 -0.1608,1.040956 -0.45478,1.040956 -0.13864,0 -0.11314,-0.287856 0.0578,-0.652809 z m 0.43762,-7.350836 c 2.8e-4,-0.109141 2.23293,-0.175118 4.96144,-0.146616 4.96169,0.05183 4.37538,0.145861 -1.72029,0.275899 -1.7829,0.03804 -3.24142,-0.02014 -3.24115,-0.129283 z"
         id="path1" /></g></g></svg>
