<?xml version="1.0" encoding="UTF-8"?>
<svg xmlns="http://www.w3.org/2000/svg" xmlns:xlink="http://www.w3.org/1999/xlink" width="32px" height="11px" viewBox="0 0 32 11" version="1.1">
<g id="surface1">
<path style=" stroke:none;fill-rule:nonzero;fill:rgb(18.823529%,69.803922%,87.843137%);fill-opacity:1;" d="M 0 5.503906 L 0 0.03125 L 15.734375 0.03125 L 7.886719 0.0507812 L 0.0429688 0.0703125 L 0.0195312 5.523438 L 0 10.972656 Z M 17.316406 10.871094 C 17.316406 10.824219 18.242188 9.109375 19.371094 7.0625 C 20.503906 5.011719 21.464844 3.265625 21.511719 3.179688 C 22.160156 1.972656 22.71875 1.023438 22.917969 0.789062 C 23.480469 0.117188 24.523438 -0.167969 25.429688 0.101562 C 25.96875 0.261719 26.589844 0.816406 26.90625 1.417969 C 27.210938 1.996094 27.429688 2.394531 27.714844 2.886719 C 27.847656 3.117188 27.957031 3.320312 27.957031 3.335938 C 27.957031 3.355469 28.074219 3.574219 28.21875 3.824219 C 28.359375 4.078125 28.566406 4.449219 28.679688 4.65625 C 28.792969 4.863281 28.964844 5.179688 29.066406 5.363281 C 29.164062 5.546875 29.335938 5.859375 29.441406 6.054688 C 29.546875 6.25 29.710938 6.550781 29.808594 6.722656 C 29.90625 6.894531 30.078125 7.214844 30.195312 7.429688 C 30.597656 8.183594 30.835938 8.613281 31.015625 8.90625 C 31.117188 9.066406 31.195312 9.214844 31.195312 9.234375 C 31.195312 9.253906 31.367188 9.570312 31.574219 9.9375 C 32.015625 10.71875 32.097656 10.933594 31.953125 10.933594 C 31.898438 10.933594 31.539062 10.84375 31.160156 10.734375 C 28.320312 9.925781 25.65625 9.589844 23.410156 9.753906 C 21.789062 9.871094 20.859375 10.03125 19.167969 10.476562 C 17.234375 10.984375 17.316406 10.964844 17.316406 10.871094 Z M 19.359375 10.1875 C 21.496094 9.664062 23.207031 9.472656 25.253906 9.542969 C 27.066406 9.601562 28.808594 9.878906 30.785156 10.421875 C 31.199219 10.535156 31.496094 10.578125 31.539062 10.535156 C 31.609375 10.464844 31.578125 10.390625 31.117188 9.554688 C 31.019531 9.382812 30.570312 8.570312 30.117188 7.746094 C 29.667969 6.921875 29.199219 6.074219 29.082031 5.855469 C 28.960938 5.640625 28.804688 5.355469 28.730469 5.226562 C 28.65625 5.097656 28.503906 4.824219 28.390625 4.617188 C 28.28125 4.410156 28.101562 4.082031 27.996094 3.886719 C 27.890625 3.695312 27.71875 3.375 27.609375 3.179688 C 27.503906 2.984375 27.328125 2.65625 27.214844 2.453125 C 26.195312 0.578125 25.789062 0.214844 24.703125 0.207031 C 24.285156 0.207031 24.105469 0.246094 23.761719 0.425781 C 23.527344 0.546875 23.234375 0.757812 23.113281 0.894531 C 22.988281 1.03125 22.53125 1.796875 22.097656 2.59375 C 21.660156 3.394531 21.246094 4.132812 21.175781 4.242188 C 21.105469 4.351562 21 4.546875 20.9375 4.675781 C 20.875 4.804688 20.695312 5.132812 20.535156 5.40625 C 20.375 5.675781 20.246094 5.914062 20.246094 5.933594 C 20.246094 5.953125 20.136719 6.15625 20.003906 6.382812 C 19.871094 6.613281 19.671875 6.960938 19.566406 7.15625 C 19.460938 7.351562 19.148438 7.917969 18.871094 8.414062 C 18.597656 8.914062 18.269531 9.515625 18.140625 9.753906 C 18.015625 9.992188 17.875 10.230469 17.835938 10.285156 C 17.792969 10.335938 17.78125 10.433594 17.804688 10.492188 C 17.839844 10.59375 17.894531 10.589844 18.214844 10.492188 C 18.421875 10.429688 18.933594 10.292969 19.359375 10.1875 Z M 24.308594 8.914062 C 24.277344 8.886719 24.257812 7.839844 24.257812 6.589844 L 24.257812 4.316406 L 23.542969 4.339844 L 22.828125 4.359375 L 22.808594 5.460938 C 22.792969 6.21875 22.757812 6.578125 22.691406 6.621094 C 22.539062 6.71875 21.519531 6.695312 21.417969 6.589844 C 21.367188 6.535156 21.324219 6.367188 21.324219 6.210938 C 21.324219 5.871094 21.4375 5.738281 21.726562 5.738281 L 21.941406 5.738281 L 21.945312 4.695312 C 21.945312 4.121094 21.972656 3.609375 22.007812 3.550781 C 22.054688 3.476562 22.421875 3.457031 23.566406 3.472656 L 25.066406 3.496094 L 25.105469 5.777344 L 25.144531 8.0625 L 26.453125 8.0625 L 26.476562 6.941406 C 26.5 5.640625 26.445312 5.714844 27.382812 5.753906 L 27.917969 5.777344 L 27.941406 6.183594 C 27.960938 6.542969 27.945312 6.597656 27.800781 6.644531 C 27.710938 6.671875 27.617188 6.675781 27.59375 6.652344 C 27.566406 6.625 27.5 6.644531 27.445312 6.695312 C 27.367188 6.757812 27.339844 7.054688 27.339844 7.875 L 27.339844 8.964844 L 25.851562 8.964844 C 25.03125 8.964844 24.335938 8.941406 24.308594 8.914062 Z M 24.488281 8.808594 C 24.488281 8.765625 24.453125 8.730469 24.410156 8.730469 C 24.367188 8.730469 24.332031 8.765625 24.332031 8.808594 C 24.332031 8.851562 24.367188 8.886719 24.410156 8.886719 C 24.453125 8.886719 24.488281 8.851562 24.488281 8.808594 Z M 21.558594 6.492188 C 21.558594 6.472656 21.523438 6.433594 21.480469 6.40625 C 21.4375 6.382812 21.402344 6.398438 21.402344 6.441406 C 21.402344 6.488281 21.4375 6.527344 21.480469 6.527344 C 21.523438 6.527344 21.558594 6.511719 21.558594 6.492188 Z M 21.558594 5.976562 C 21.558594 5.929688 21.523438 5.894531 21.480469 5.894531 C 21.4375 5.894531 21.402344 5.929688 21.402344 5.976562 C 21.402344 6.019531 21.4375 6.054688 21.480469 6.054688 C 21.523438 6.054688 21.558594 6.019531 21.558594 5.976562 Z M 22.066406 5.859375 C 22.144531 5.652344 22.058594 5.582031 21.96875 5.78125 C 21.917969 5.890625 21.910156 5.976562 21.953125 5.976562 C 21.992188 5.976562 22.042969 5.921875 22.066406 5.859375 Z M 24.488281 3.589844 C 24.761719 3.574219 24.339844 3.558594 23.542969 3.550781 C 22.746094 3.542969 22.097656 3.5625 22.097656 3.59375 C 22.097656 3.648438 23.253906 3.644531 24.488281 3.589844 Z M 0.617188 10.441406 C 0.59375 10.386719 0.585938 8.148438 0.597656 5.464844 L 0.621094 0.582031 L 0.636719 5.523438 L 0.65625 10.460938 L 7.847656 10.480469 L 15.039062 10.503906 L 7.847656 10.519531 C 2.148438 10.535156 0.644531 10.519531 0.617188 10.441406 Z M 15.113281 5.542969 C 15.113281 2.8125 15.125 1.710938 15.136719 3.085938 C 15.148438 4.464844 15.148438 6.695312 15.136719 8.046875 C 15.125 9.398438 15.113281 8.269531 15.113281 5.542969 Z M 1.230469 7.667969 C 1.230469 6.410156 1.242188 5.910156 1.253906 6.550781 C 1.269531 7.191406 1.269531 8.21875 1.253906 8.832031 C 1.242188 9.449219 1.230469 8.921875 1.230469 7.667969 Z M 14.007812 9.222656 L 14 8.96875 L 11.648438 8.921875 L 12.824219 8.90625 C 14.089844 8.886719 14.128906 8.898438 14.054688 9.296875 C 14.027344 9.433594 14.015625 9.417969 14.007812 9.222656 Z M 10.175781 7.667969 C 10.175781 6.757812 10.1875 6.398438 10.199219 6.863281 C 10.214844 7.332031 10.214844 8.078125 10.199219 8.519531 C 10.1875 8.960938 10.175781 8.578125 10.175781 7.667969 Z M 5.546875 7.667969 C 5.546875 6.84375 5.558594 6.519531 5.574219 6.941406 C 5.585938 7.367188 5.585938 8.039062 5.574219 8.4375 C 5.558594 8.835938 5.546875 8.488281 5.546875 7.667969 Z M 7.417969 8.984375 C 7.398438 8.953125 7.582031 8.925781 7.828125 8.925781 C 8.074219 8.925781 8.261719 8.953125 8.242188 8.984375 C 8.222656 9.019531 8.035156 9.042969 7.828125 9.042969 C 7.621094 9.042969 7.4375 9.019531 7.417969 8.984375 Z M 3.082031 7.648438 L 3.085938 6.40625 L 3.550781 6.402344 L 4.011719 6.398438 L 3.128906 6.453125 L 3.105469 7.671875 L 3.082031 8.886719 Z M 6.304688 8.59375 C 6.507812 8.578125 6.835938 8.578125 7.039062 8.59375 C 7.242188 8.609375 7.074219 8.621094 6.671875 8.621094 C 6.269531 8.621094 6.105469 8.609375 6.304688 8.59375 Z M 6.769531 7.964844 C 7.054688 7.949219 7.523438 7.949219 7.808594 7.964844 C 8.097656 7.976562 7.863281 7.992188 7.289062 7.992188 C 6.71875 7.992188 6.484375 7.976562 6.769531 7.964844 Z M 6.054688 7.824219 C 6 7.757812 5.972656 7.6875 5.988281 7.667969 C 6.007812 7.648438 6.066406 7.703125 6.117188 7.789062 C 6.230469 7.972656 6.191406 7.992188 6.054688 7.824219 Z M 13.621094 7.660156 C 13.625 7.570312 13.640625 7.550781 13.667969 7.613281 C 13.6875 7.671875 13.6875 7.738281 13.660156 7.765625 C 13.632812 7.789062 13.617188 7.742188 13.621094 7.660156 Z M 7.84375 7.332031 C 8.128906 7.316406 8.617188 7.316406 8.925781 7.332031 C 9.234375 7.347656 9 7.359375 8.40625 7.359375 C 7.8125 7.359375 7.5625 7.347656 7.84375 7.332031 Z M 8.621094 6.703125 C 8.820312 6.6875 9.152344 6.6875 9.351562 6.703125 C 9.554688 6.71875 9.390625 6.734375 8.984375 6.734375 C 8.582031 6.734375 8.417969 6.71875 8.621094 6.703125 Z M 12.835938 6.390625 L 13.988281 6.363281 L 14.023438 6.089844 L 14.054688 5.816406 L 14.046875 6.113281 L 14.039062 6.40625 L 12.863281 6.410156 L 11.683594 6.414062 Z M 3.359375 4.5625 C 3.3125 4.476562 3.277344 3.882812 3.277344 3.191406 C 3.277344 2.1875 3.300781 1.949219 3.402344 1.847656 C 3.507812 1.738281 4.019531 1.722656 7.867188 1.722656 L 12.214844 1.722656 L 12.335938 1.898438 C 12.433594 2.039062 12.457031 2.3125 12.457031 3.265625 C 12.457031 4.316406 12.441406 4.46875 12.316406 4.585938 C 12.1875 4.703125 11.761719 4.714844 7.808594 4.714844 C 3.566406 4.714844 3.4375 4.710938 3.359375 4.5625 Z M 9.757812 3.21875 L 9.757812 2.195312 L 5.976562 2.195312 L 5.976562 4.242188 L 9.757812 4.242188 Z M 9.757812 3.21875 "/>
<path style=" stroke:none;fill-rule:nonzero;fill:rgb(0.784314%,43.921569%,64.313725%);fill-opacity:1;" d="M 0.0390625 5.542969 L 0.0390625 0.0703125 L 15.695312 0.0703125 L 15.695312 11.011719 L 0.0390625 11.011719 Z M 15.035156 10.492188 C 15.144531 10.449219 15.15625 9.941406 15.15625 5.535156 L 15.15625 0.621094 L 0.578125 0.621094 L 0.578125 5.527344 C 0.578125 8.226562 0.601562 10.460938 0.632812 10.488281 C 0.695312 10.554688 14.867188 10.558594 15.035156 10.492188 Z M 1.273438 7.667969 L 1.273438 5.421875 L 14.460938 5.421875 L 14.460938 9.910156 L 1.273438 9.910156 Z M 5.433594 9.308594 C 5.582031 9.117188 5.59375 9 5.59375 7.667969 C 5.59375 6.335938 5.582031 6.21875 5.433594 6.023438 L 5.273438 5.816406 L 3.621094 5.816406 C 2.070312 5.816406 1.957031 5.828125 1.8125 5.976562 C 1.671875 6.121094 1.660156 6.238281 1.660156 7.667969 C 1.660156 9.097656 1.671875 9.214844 1.8125 9.359375 C 1.957031 9.507812 2.070312 9.515625 3.621094 9.515625 L 5.273438 9.515625 Z M 3.125 7.667969 L 3.125 6.445312 L 4.128906 6.445312 L 4.128906 8.886719 L 3.125 8.886719 Z M 9.539062 9.386719 C 9.660156 9.277344 9.679688 9.128906 9.679688 8.429688 C 9.679688 7.289062 9.707031 7.3125 8.394531 7.3125 L 7.367188 7.3125 L 7.367188 6.894531 C 7.367188 6.40625 7.453125 6.289062 7.828125 6.289062 C 8.132812 6.289062 8.292969 6.402344 8.292969 6.621094 C 8.292969 6.746094 8.371094 6.761719 8.984375 6.761719 L 9.679688 6.761719 L 9.679688 6.414062 C 9.679688 5.824219 9.664062 5.816406 7.828125 5.816406 C 6.46875 5.816406 6.203125 5.835938 6.101562 5.941406 C 6.003906 6.039062 5.976562 6.246094 5.976562 6.921875 C 5.976562 8.035156 5.960938 8.023438 7.308594 8.023438 L 8.300781 8.023438 L 8.277344 8.472656 L 8.253906 8.925781 L 7.828125 8.925781 C 7.449219 8.925781 7.402344 8.910156 7.378906 8.75 C 7.355469 8.582031 7.324219 8.574219 6.667969 8.574219 L 5.976562 8.574219 L 5.976562 8.921875 C 5.976562 9.511719 5.996094 9.515625 7.808594 9.515625 C 9.179688 9.515625 9.417969 9.5 9.539062 9.386719 Z M 14.039062 9.203125 L 14.039062 8.925781 L 12.863281 8.90625 L 11.683594 8.882812 L 11.683594 7.941406 L 13.691406 7.941406 L 13.691406 7.394531 L 12.707031 7.375 L 11.722656 7.351562 L 11.699219 6.902344 L 11.679688 6.453125 L 14.039062 6.40625 L 14.0625 6.113281 L 14.085938 5.816406 L 12.253906 5.816406 C 10.660156 5.816406 10.40625 5.835938 10.285156 5.949219 C 10.15625 6.066406 10.144531 6.226562 10.144531 7.652344 C 10.144531 9.015625 10.160156 9.25 10.273438 9.375 C 10.390625 9.507812 10.535156 9.519531 12.21875 9.5 L 14.039062 9.476562 Z M 24.332031 8.808594 C 24.332031 8.765625 24.367188 8.730469 24.410156 8.730469 C 24.453125 8.730469 24.488281 8.765625 24.488281 8.808594 C 24.488281 8.851562 24.453125 8.886719 24.410156 8.886719 C 24.367188 8.886719 24.332031 8.851562 24.332031 8.808594 Z M 21.402344 6.441406 C 21.402344 6.398438 21.4375 6.382812 21.480469 6.40625 C 21.523438 6.433594 21.558594 6.472656 21.558594 6.492188 C 21.558594 6.511719 21.523438 6.527344 21.480469 6.527344 C 21.4375 6.527344 21.402344 6.488281 21.402344 6.441406 Z M 21.402344 5.976562 C 21.402344 5.929688 21.4375 5.894531 21.480469 5.894531 C 21.523438 5.894531 21.558594 5.929688 21.558594 5.976562 C 21.558594 6.019531 21.523438 6.054688 21.480469 6.054688 C 21.4375 6.054688 21.402344 6.019531 21.402344 5.976562 Z M 21.96875 5.78125 C 22.019531 5.671875 22.070312 5.621094 22.085938 5.664062 C 22.121094 5.777344 22.039062 5.976562 21.953125 5.976562 C 21.910156 5.976562 21.917969 5.890625 21.96875 5.78125 Z M 22.097656 3.59375 C 22.097656 3.5625 22.746094 3.542969 23.542969 3.550781 C 24.988281 3.566406 24.816406 3.59375 23.042969 3.632812 C 22.523438 3.644531 22.097656 3.625 22.097656 3.59375 Z M 22.097656 3.59375 "/>
</g>
</svg>
